# xmcd
#
# Track frame offsets: 
#        150
#        25435
#        47067
#        71355
#        88025
#        106550
#        127292
#        146910
#        167065
#        189355
#        201945
#        224790
#
# Disc length: 3214 seconds
#
# Revision: 4
# Processed by: cddbd v1.5.2PL0 Copyright (c) Steve Scherf et al.
# Submitted via: ExactAudioCopy v1.0b3
#
DISCID=b80c8c0c
DTITLE=Luther Allison - Blue Streak
DYEAR=1995
DGENRE=Blues
TTITLE0=All The King's Horses
TTITLE1=What Have I Done Wrong?
TTITLE2=Big City
TTITLE3=Move From The 'Hood
TTITLE4=What's Going On In My Home?
TTITLE5=I Believe In You
TTITLE6=Cherry Red Wine
TTITLE7=Walking Papers
TTITLE8=Think With Your Heart
TTITLE9=You Don't Know
TTITLE10=Should I Wait?
TTITLE11=Midnight Creeper
EXTD=
EXTT0=
EXTT1=
EXTT2=
EXTT3=
EXTT4=
EXTT5=
EXTT6=
EXTT7=
EXTT8=
EXTT9=
EXTT10=
EXTT11=
PLAYORDER=
